mtllib . model skybox.mtl
v 2004.6684 2004.6684 -6.5379
v 2004.6684 -2004.6684 -6.5378
v -2004.6684 -2004.6677 -6.5379
v -2004.6675 2004.6692 -6.538
v 2004.6694 2004.6675 2009.9831
v 2004.6671 -2004.6696 2009.9831
v -2004.669 -2004.6679 2009.9831
v -2004.6682 2004.6684 2009.9831
vt 24.6099 99.9982
vt 75.3942 99.9992
vt 75.3891 75.3811
vt 24.6099 75.3905
vt 0.003 24.6083
vt 0.0003 75.3896
vt 24.6118 75.388
vt 24.6084 24.6129
vt 75.3912 0.1006
vt 24.9163 0.1166
vt 75.3912 25.4438
vt 24.9163 25.4598
vt 100.0005 75.3866
vt 100.0017 24.6017
vt 75.3899 75.3937
vt 75.3899 24.6104
vt 75.1881 75.1881
vt 75.1881 24.8119
vt 24.8119 75.1881
vt 24.8119 24.8119
vn -0.000000 -1.000000 -0.000000
vn 1.000000 -0.000000 0.000000
vn 0.000000 1.000000 0.000001
vn 0.000000 1.000000 0.000000
vn -1.000000 0.000000 0.000000
vn -1.000000 0.000001 -0.000001
vn 0.000000 0.000000 -1.000000
usemtl Material_SkyBox.bmp
s off
f 4/1/1 1/2/1 5/3/1
f 4/1/1 5/3/1 8/4/1
f 3/5/2 4/6/2 8/7/2
f 3/5/2 8/7/2 7/8/2
f 2/9/3 3/10/3 6/11/3
f 3/10/4 7/12/4 6/11/4
f 1/13/5 2/14/5 5/15/5
f 2/14/6 6/16/6 5/15/6
f 5/17/7 6/18/7 8/19/7
f 6/18/7 7/20/7 8/19/7